<svg width="37" height="37" viewBox="0 0 37 37" fill="none" xmlns="http://www.w3.org/2000/svg">
<path d="M25.2909 25.3384C25.2909 25.3384 22.7273 21.9202 18.4545 21.9202C14.1817 21.9202 11.6181 25.3384 11.6181 25.3384M23.5818 13.3747H23.5989M13.3272 13.3747H13.3443M35.5456 18.502C35.5456 27.9411 27.8937 35.5931 18.4545 35.5931C9.01535 35.5931 1.3634 27.9411 1.3634 18.502C1.3634 9.06283 9.01535 1.41089 18.4545 1.41089C27.8937 1.41089 35.5456 9.06283 35.5456 18.502ZM24.4364 13.3747C24.4364 13.8466 24.0538 14.2292 23.5818 14.2292C23.1099 14.2292 22.7273 13.8466 22.7273 13.3747C22.7273 12.9027 23.1099 12.5201 23.5818 12.5201C24.0538 12.5201 24.4364 12.9027 24.4364 13.3747ZM14.1817 13.3747C14.1817 13.8466 13.7991 14.2292 13.3272 14.2292C12.8552 14.2292 12.4726 13.8466 12.4726 13.3747C12.4726 12.9027 12.8552 12.5201 13.3272 12.5201C13.7991 12.5201 14.1817 12.9027 14.1817 13.3747Z" stroke="#666E80" stroke-width="1.89901" stroke-linecap="round" stroke-linejoin="round"/>
</svg>
