<svg width="37" height="37" viewBox="0 0 37 37" fill="none" xmlns="http://www.w3.org/2000/svg">
<path d="M25.7454 25.3384C25.7454 25.3384 23.1817 21.9202 18.909 21.9202C14.6362 21.9202 12.0725 25.3384 12.0725 25.3384M27.4545 13.7848C26.7794 14.6138 25.8565 15.0838 24.8909 15.0838C23.9252 15.0838 23.0279 14.6138 22.3272 13.7848M15.4907 13.7848C14.8157 14.6138 13.8927 15.0838 12.9271 15.0838C11.9614 15.0838 11.0642 14.6138 10.3634 13.7848M36.0001 18.502C36.0001 27.9411 28.3481 35.5931 18.909 35.5931C9.46982 35.5931 1.81787 27.9411 1.81787 18.502C1.81787 9.06283 9.46982 1.41089 18.909 1.41089C28.3481 1.41089 36.0001 9.06283 36.0001 18.502Z" stroke="#666E80" stroke-width="1.89901" stroke-linecap="round" stroke-linejoin="round"/>
</svg>
