<svg width="38" height="37" viewBox="0 0 38 37" fill="none" xmlns="http://www.w3.org/2000/svg">
<path d="M12.1636 23.6293H25.8365M24.1274 13.3747H24.1445M13.8727 13.3747H13.8898M36.0911 18.502C36.0911 27.9411 28.4392 35.5931 19 35.5931C9.56088 35.5931 1.90894 27.9411 1.90894 18.502C1.90894 9.06283 9.56088 1.41089 19 1.41089C28.4392 1.41089 36.0911 9.06283 36.0911 18.502ZM24.9819 13.3747C24.9819 13.8466 24.5993 14.2292 24.1274 14.2292C23.6554 14.2292 23.2728 13.8466 23.2728 13.3747C23.2728 12.9027 23.6554 12.5201 24.1274 12.5201C24.5993 12.5201 24.9819 12.9027 24.9819 13.3747ZM14.7273 13.3747C14.7273 13.8466 14.3447 14.2292 13.8727 14.2292C13.4007 14.2292 13.0181 13.8466 13.0181 13.3747C13.0181 12.9027 13.4007 12.5201 13.8727 12.5201C14.3447 12.5201 14.7273 12.9027 14.7273 13.3747Z" stroke="#666E80" stroke-width="1.89901" stroke-linecap="round" stroke-linejoin="round"/>
</svg>
