<svg width="37" height="37" viewBox="0 0 37 37" fill="none" xmlns="http://www.w3.org/2000/svg">
<path d="M23.2184 13.3747H23.2355M12.9638 13.3747H12.9809M35.1822 18.502C35.1822 27.9411 27.5302 35.5931 18.0911 35.5931C8.65194 35.5931 1 27.9411 1 18.502C1 9.06283 8.65194 1.41089 18.0911 1.41089C27.5302 1.41089 35.1822 9.06283 35.1822 18.502ZM24.073 13.3747C24.073 13.8466 23.6904 14.2292 23.2184 14.2292C22.7465 14.2292 22.3639 13.8466 22.3639 13.3747C22.3639 12.9027 22.7465 12.5201 23.2184 12.5201C23.6904 12.5201 24.073 12.9027 24.073 13.3747ZM13.8183 13.3747C13.8183 13.8466 13.4357 14.2292 12.9638 14.2292C12.4918 14.2292 12.1092 13.8466 12.1092 13.3747C12.1092 12.9027 12.4918 12.5201 12.9638 12.5201C13.4357 12.5201 13.8183 12.9027 13.8183 13.3747ZM18.0911 27.9021C22.3647 27.9021 25.7821 24.7693 25.7821 21.9202H10.4001C10.4001 24.7693 13.8175 27.9021 18.0911 27.9021Z" stroke="#666E80" stroke-width="1.89901" stroke-linecap="round" stroke-linejoin="round"/>
</svg>
