<svg width="37" height="37" viewBox="0 0 37 37" fill="none" xmlns="http://www.w3.org/2000/svg">
<path d="M11.7091 21.9202C11.7091 21.9202 14.2728 25.3384 18.5456 25.3384C22.8183 25.3384 25.382 21.9202 25.382 21.9202M23.6729 13.3747H23.69M13.4182 13.3747H13.4353M35.6367 18.502C35.6367 27.9411 27.9847 35.5931 18.5456 35.5931C9.10641 35.5931 1.45447 27.9411 1.45447 18.502C1.45447 9.06283 9.10641 1.41089 18.5456 1.41089C27.9847 1.41089 35.6367 9.06283 35.6367 18.502ZM24.5274 13.3747C24.5274 13.8466 24.1449 14.2292 23.6729 14.2292C23.2009 14.2292 22.8183 13.8466 22.8183 13.3747C22.8183 12.9027 23.2009 12.5201 23.6729 12.5201C24.1449 12.5201 24.5274 12.9027 24.5274 13.3747ZM14.2728 13.3747C14.2728 13.8466 13.8902 14.2292 13.4182 14.2292C12.9463 14.2292 12.5637 13.8466 12.5637 13.3747C12.5637 12.9027 12.9463 12.5201 13.4182 12.5201C13.8902 12.5201 14.2728 12.9027 14.2728 13.3747Z" stroke="#666E80" stroke-width="1.89901" stroke-linecap="round" stroke-linejoin="round"/>
</svg>
